<svg width="390" height="285" viewBox="0 0 390 285" fill="none" xmlns="http://www.w3.org/2000/svg">
<rect y="195" width="390" height="90" fill="white"/>
<rect x="287.508" y="179.143" width="43.5734" height="12.5898" transform="rotate(-74.2007 287.508 179.143)" fill="white"/>
<rect x="270.491" width="117.504" height="117.504" rx="21" transform="rotate(45 270.491 0)" fill="#FDDC82"/>
<circle cx="300.68" cy="92.0611" r="10.812" fill="#FDCA82"/>
<circle cx="239.48" cy="94.5091" r="10.812" fill="#FDCA82"/>
<path d="M255.592 123.133L260.289 194.265" stroke="#FDDC82" stroke-width="5"/>
<path d="M314.291 95.8804C314.291 95.8804 334.557 121.004 331.02 137.904C328.239 151.191 304.091 145.656 304.091 145.656" stroke="#FDDC82" stroke-width="5" stroke-linecap="round"/>
<path d="M229.753 102C229.753 102 226.575 125.136 216.753 135C204.412 147.394 186.403 140 186.403 140" stroke="#FDDC82" stroke-width="5" stroke-linecap="round"/>
<path d="M283.262 123.435L278.037 193.857" stroke="#FDDC82" stroke-width="5"/>
<path d="M282.571 187.14C279.081 187.019 276.137 190.207 275.997 194.261L288.638 194.698C288.778 190.644 286.062 187.26 282.571 187.14Z" fill="#FDDC82"/>
<path d="M255.799 187.087C252.307 187.179 249.563 190.54 249.669 194.594L262.313 194.263C262.207 190.208 259.29 186.996 255.799 187.087Z" fill="#FDDC82"/>
<path d="M267.02 92.265C267.02 95.733 273.956 95.529 273.956 92.265" stroke="#2F2D2D" stroke-width="2" stroke-linecap="round"/>
<rect x="299.224" y="137.759" width="76.255" height="12.648" transform="rotate(-74.2007 299.224 137.759)" fill="white"/>
<path d="M316.291 38.2813L319.438 27.1599C320.19 24.5028 322.954 22.9582 325.611 23.7101L347.965 30.0353C350.622 30.7871 352.166 33.5506 351.414 36.2077L348.268 47.3292L316.291 38.2813Z" fill="#2F2D2D"/>
<path d="M315.004 74.1845C309.69 72.6808 306.601 67.1538 308.105 61.8396L315.072 37.217L349.62 46.9926L342.652 71.6151C341.149 76.9293 335.622 80.0184 330.308 78.5147L315.004 74.1845Z" fill="#FF9BA9"/>
<path d="M291.343 188.606C287.975 187.653 286.017 184.15 286.97 180.782L287.624 178.471L299.821 181.922L299.167 184.233C298.214 187.602 294.711 189.559 291.343 188.606V188.606Z" fill="#FF9BA9"/>
<path d="M272.434 79.9986C272.434 86.6253 276.371 87.4357 282.997 87.4357C289.624 87.4357 296.431 86.6253 296.431 79.9986C296.431 73.372 291.059 68 284.433 68C277.806 68 272.434 73.372 272.434 79.9986Z" fill="white"/>
<path d="M239 80.4343C239 87.061 242.937 87.8713 249.563 87.8713C256.19 87.8713 262.997 87.061 262.997 80.4343C262.997 73.8076 257.625 68.4357 250.999 68.4357C244.372 68.4357 239 73.8076 239 80.4343Z" fill="white"/>
<circle cx="7.28488" cy="7.28488" r="7.28488" transform="matrix(-1 0 0 1 287.997 72.4357)" fill="#2F2D2D"/>
<circle cx="7.28488" cy="7.28488" r="7.28488" transform="matrix(-1 0 0 1 254.563 72.8713)" fill="#2F2D2D"/>
<path d="M28.0762 2.80024C28.0762 2.80024 61.9362 -4.32861 78.6011 6.32483C89.1779 13.0863 99.1446 31.0485 99.1446 31.0485C99.1446 31.0485 111.208 13.2997 122.805 7.11354C139.998 -2.05845 172.674 5.38028 172.674 5.38028C172.674 5.38028 177.979 35.4386 169.236 51.0353C163.267 61.6848 146.74 72.7427 146.74 72.7427C146.74 72.7427 163.054 87.565 168.361 100.109C175.441 116.845 170.154 146.606 170.154 146.606C170.154 146.606 137.203 152.235 120.392 142.346C109.063 135.682 97.6005 117.582 97.6005 117.582C97.6005 117.582 86.9634 135.117 76.1882 141.557C59.1958 151.714 25.5563 144.026 25.5563 144.026C25.5563 144.026 20.9032 111.646 30.1846 94.6454C36.2877 83.4667 52.7141 71.065 52.7141 71.065C52.7141 71.065 36.6999 59.3686 31.0068 48.5689C22.6547 32.7252 28.0762 2.80024 28.0762 2.80024Z" fill="#DD9BFF"/>
<circle cx="128.774" cy="87.2044" r="11.3558" fill="#C584E6"/>
<circle cx="72.2089" cy="88.9185" r="11.3558" fill="#C584E6"/>
<path d="M83.9893 119.41L88.9223 194.12" stroke="#DD9BFF" stroke-width="5"/>
<path d="M113.051 119.727L107.563 193.692" stroke="#DD9BFF" stroke-width="5"/>
<path d="M112.325 186.636C108.659 186.51 105.568 189.858 105.42 194.116L118.697 194.575C118.844 190.317 115.991 186.763 112.325 186.636Z" fill="#DD9BFF"/>
<path d="M84.2063 186.581C80.5393 186.677 77.657 190.207 77.7686 194.466L91.0483 194.118C90.9366 189.859 87.8734 186.485 84.2063 186.581Z" fill="#DD9BFF"/>
<path d="M98.3491 86.9901C98.3491 90.6326 105.634 90.4183 105.634 86.9901" stroke="#2F2D2D" stroke-width="2" stroke-linecap="round"/>
<path d="M95.5633 74.563C95.5633 81.1896 91.6267 82 85 82C78.3733 82 71.566 81.1896 71.566 74.563C71.566 67.9363 76.938 62.5643 83.5647 62.5643C90.1913 62.5643 95.5633 67.9363 95.5633 74.563Z" fill="white"/>
<path d="M128.997 74.9986C128.997 81.6253 125.061 82.4357 118.434 82.4357C111.807 82.4357 105 81.6253 105 74.9986C105 68.372 110.372 63 116.999 63C123.625 63 128.997 68.372 128.997 74.9986Z" fill="white"/>
<circle cx="87.2849" cy="74.2849" r="7.28488" fill="#2F2D2D"/>
<circle cx="120.719" cy="74.7206" r="7.28488" fill="#2F2D2D"/>
<path d="M53.5232 174.583L53.5231 154.083L53.5231 131" stroke="#DD9BFF" stroke-width="5" stroke-linecap="round"/>
<path d="M136.314 134.79C136.314 134.79 147.02 157.259 162.538 155.898C174.654 154.835 185.045 139.851 185.045 139.851" stroke="#DD9BFF" stroke-width="5" stroke-linecap="round"/>
<path fill-rule="evenodd" clip-rule="evenodd" d="M68.3338 239.99C67.826 239.974 67.3163 239.966 66.805 239.966C67.3163 239.966 67.826 239.958 68.3338 239.942V239.99ZM68.3338 239.942V194.506H114.369C113.578 219.231 93.3853 239.16 68.3338 239.942ZM114.369 194.506C114.385 194.006 114.393 193.504 114.393 193C114.393 193.504 114.401 194.006 114.417 194.506H114.369ZM114.417 194.506H160.452V239.942C135.4 239.16 115.207 219.231 114.417 194.506ZM160.452 239.942C160.959 239.958 161.469 239.966 161.981 239.966C161.469 239.966 160.959 239.974 160.452 239.99V239.942ZM160.452 239.99V285.426H114.417C115.207 260.702 135.4 240.772 160.452 239.99ZM114.417 285.426C114.401 285.926 114.393 286.428 114.393 286.932C114.393 286.428 114.385 285.926 114.369 285.426H114.417ZM114.369 285.426H68.3338V239.99C93.3853 240.772 113.578 260.702 114.369 285.426Z" fill="#FDDC80"/>
<path fill-rule="evenodd" clip-rule="evenodd" d="M166.181 281.15C164.616 272.167 164.815 262.736 167.064 253.31C175.601 217.521 210.632 194.65 246.842 200.162C248.406 209.145 248.207 218.577 245.959 228.002C237.422 263.792 202.39 286.662 166.181 281.15Z" fill="#7CD2F3"/>
<path fill-rule="evenodd" clip-rule="evenodd" d="M-4.52581 240.45C-19.8653 221.664 -26.9876 204.165 -20.7393 197.998C-14.4912 191.832 3.23976 198.861 22.2749 214C41.31 198.861 59.041 191.832 65.289 197.998C71.5373 204.165 64.4151 221.664 49.0756 240.451C64.4151 259.237 71.5374 276.736 65.2893 282.902C59.041 289.069 41.31 282.04 22.2749 266.901C3.23979 282.04 -14.4913 289.069 -20.7396 282.902C-26.9876 276.736 -19.8653 259.237 -4.52581 240.45Z" fill="#C59DC9"/>
<path fill-rule="evenodd" clip-rule="evenodd" d="M438.244 240.034C411.979 240.034 390.656 261.079 390.656 287C390.656 261.079 369.333 240.034 343.068 240.034C369.333 240.034 390.656 218.989 390.656 193.068C390.656 218.989 411.979 240.034 438.244 240.034Z" fill="#FDDC80"/>
<path fill-rule="evenodd" clip-rule="evenodd" d="M344.597 195.059L344.597 285.979L252.479 285.979L252.479 195.059H344.597ZM271.737 240.519C256.398 259.305 249.276 276.804 255.524 282.971C261.772 289.137 279.503 282.108 298.538 266.969C317.573 282.108 335.304 289.137 341.553 282.971C347.801 276.804 340.678 259.305 325.339 240.519C340.678 221.732 347.801 204.233 341.552 198.067C335.304 191.9 317.573 198.929 298.538 214.068C279.503 198.929 261.772 191.9 255.524 198.067C249.276 204.233 256.398 221.732 271.737 240.519Z" fill="#F47F68"/>
</svg>
