<svg width="390" height="378" viewBox="0 0 390 378" fill="none" xmlns="http://www.w3.org/2000/svg">
<path fill-rule="evenodd" clip-rule="evenodd" d="M-28.8196 194.133L-28.8196 286.257L-120.938 286.257L-120.938 194.133L-28.8196 194.133ZM-66.7792 199.679C-71.2494 195.209 -78.5083 195.208 -82.9785 199.678L-115.395 232.095C-119.866 236.565 -119.865 243.824 -115.395 248.295L-82.9785 280.711C-78.508 285.182 -71.2494 285.182 -66.7792 280.711L-34.3623 248.295C-29.8921 243.824 -29.8921 236.566 -34.3626 232.095L-66.7792 199.679Z" fill="#7CD2F3"/>
<path fill-rule="evenodd" clip-rule="evenodd" d="M-101.68 332.81C-117.02 313.775 -124.142 296.044 -117.894 289.796C-111.646 283.547 -93.9147 290.67 -74.8796 306.009C-55.8445 290.67 -38.1135 283.548 -31.8654 289.796C-25.6171 296.044 -32.7394 313.775 -48.0789 332.81C-32.7394 351.845 -25.6171 369.576 -31.8651 375.824C-38.1134 382.072 -55.8445 374.95 -74.8796 359.611C-93.9147 374.95 -111.646 382.072 -117.894 375.824C-124.142 369.576 -117.02 351.845 -101.68 332.81Z" fill="#C59DC9"/>
<path fill-rule="evenodd" clip-rule="evenodd" d="M-28.8206 332.343C-29.3284 332.327 -29.8381 332.319 -30.3494 332.319C-29.8381 332.319 -29.3284 332.311 -28.8206 332.295V332.343ZM-28.8206 332.295V286.257H17.2143C16.4234 311.309 -3.76912 331.503 -28.8206 332.295ZM17.2143 286.257C17.2302 285.75 17.2384 285.241 17.2384 284.731C17.2384 285.241 17.2462 285.75 17.2626 286.257H17.2143ZM17.2626 286.257H63.2974V332.295C38.2459 331.503 18.0531 311.309 17.2626 286.257ZM63.2974 332.295C63.8048 332.311 64.3145 332.319 64.8262 332.319C64.3145 332.319 63.8048 332.327 63.2974 332.343V332.295ZM63.2974 332.343V378.381H17.2626C18.0531 353.329 38.2459 333.135 63.2974 332.343ZM17.2626 378.381C17.2462 378.888 17.2384 379.396 17.2384 379.907C17.2384 379.396 17.2302 378.888 17.2143 378.381H17.2626ZM17.2143 378.381H-28.8206V332.343C-3.76912 333.135 16.4234 353.329 17.2143 378.381Z" fill="#FDDC80"/>
<path fill-rule="evenodd" clip-rule="evenodd" d="M62.9975 213.976C62.4796 207.268 63.1352 200.336 62.7789 194.203C62.8516 194.208 62.9246 194.214 62.9976 194.219L62.9975 213.976ZM62.9976 194.219L62.9977 194.134L155.115 194.134L155.116 267.099C154.599 260.217 152.862 253.566 147.548 248.252C144.24 244.944 140.447 242.421 136.404 240.684C140.421 239.01 144.177 236.544 147.434 233.287C157.739 222.981 153.851 207.769 154.623 194.904C142.248 195.435 126.546 191.788 116.241 202.094C112.983 205.351 110.518 209.106 108.843 213.123C107.106 209.08 104.583 205.287 101.275 201.979C90.8706 191.574 75.8283 195.131 62.9976 194.219ZM155.116 267.099C155.616 273.768 154.971 280.653 155.325 286.749C148.325 286.222 140.653 287.062 133.427 286.258L155.116 286.258L155.116 267.099ZM133.427 286.258L62.9976 286.258L62.9975 213.976C63.5254 220.814 65.2728 227.417 70.5552 232.7C73.8628 236.007 77.6566 238.53 81.6996 240.267C77.6826 241.942 73.9272 244.407 70.6695 247.665C60.3642 257.97 64.2526 273.182 63.4803 286.047C75.8556 285.516 91.5573 289.163 101.863 278.858C105.12 275.6 107.586 271.845 109.261 267.828C110.997 271.871 113.52 275.664 116.828 278.972C121.604 283.749 127.358 285.583 133.427 286.258Z" fill="#C59DC9"/>
<path fill-rule="evenodd" clip-rule="evenodd" d="M69.0268 374.049C67.4619 364.947 67.6609 355.39 69.9092 345.84C78.4465 309.576 113.478 286.403 149.688 291.988C151.252 301.09 151.053 310.647 148.805 320.197C140.267 356.461 105.236 379.634 69.0268 374.049Z" fill="#7CD2F3"/>
<path fill-rule="evenodd" clip-rule="evenodd" d="M13.9254 231.016C13.9254 212.804 15.2754 198.018 16.9388 198.018C18.6018 198.018 19.9518 212.804 19.9518 231.016C29.5589 215.243 38.5279 203.078 39.9679 203.866C41.4083 204.655 34.778 218.099 25.1713 233.872C41.8111 224.766 55.9953 218.481 56.827 219.846C57.6583 221.212 44.8241 229.713 28.1847 238.819C47.3985 238.819 62.9975 240.099 62.9975 241.675C62.9975 243.251 47.3985 244.532 28.1847 244.532C44.8241 253.638 57.6583 262.139 56.827 263.504C55.9953 264.869 41.8111 258.585 25.1713 249.478C34.778 265.251 41.4083 278.696 39.9679 279.484C38.5279 280.272 29.5589 268.107 19.9518 252.335C19.9518 270.547 18.6018 285.333 16.9388 285.333C15.2754 285.333 13.9254 270.547 13.9254 252.335C4.31826 268.107 -4.65073 280.272 -6.09079 279.484C-7.5312 278.696 -0.900822 265.251 8.70593 249.478C-7.93354 258.585 -22.1181 264.869 -22.9498 263.504C-23.7811 262.139 -10.947 253.638 5.6925 244.532C-13.5213 244.532 -29.1203 243.251 -29.1203 241.675C-29.1203 240.099 -13.5213 238.819 5.6925 238.819C-10.947 229.713 -23.7811 221.212 -22.9498 219.846C-22.1181 218.481 -7.93354 224.766 8.70593 233.872C-0.900822 218.099 -7.5312 204.655 -6.09079 203.866C-4.65073 203.078 4.31826 215.243 13.9254 231.016Z" fill="#F47F68"/>
<path fill-rule="evenodd" clip-rule="evenodd" d="M341.089 332.388C314.825 332.388 293.502 353.712 293.502 379.976C293.502 353.712 272.178 332.388 245.914 332.388C272.178 332.388 293.502 311.064 293.502 284.8C293.502 311.064 314.825 332.388 341.089 332.388Z" fill="#FDDC80"/>
<path fill-rule="evenodd" clip-rule="evenodd" d="M209.484 199.748L241.901 232.164C246.371 236.635 246.371 243.894 241.901 248.364L209.484 280.781C205.014 285.251 197.755 285.251 193.285 280.78L160.868 248.364C156.398 243.894 156.398 236.635 160.868 232.164L193.285 199.748C197.755 195.277 205.014 195.278 209.484 199.748Z" fill="#FDDC80"/>
<path fill-rule="evenodd" clip-rule="evenodd" d="M357.963 240.336C353.92 238.599 350.126 236.076 346.818 232.768C336.355 222.305 339.762 206.657 339.042 194.272C351.92 195.241 367.075 191.584 377.539 202.048C380.846 205.356 383.37 209.149 385.106 213.192C386.781 209.175 389.247 205.42 392.504 202.162C402.809 191.857 418.511 195.504 430.887 194.973C430.114 207.838 434.003 223.05 423.697 233.356C420.44 236.613 416.684 239.079 412.667 240.753C416.71 242.49 420.504 245.013 423.812 248.321C434.275 258.785 430.869 274.433 431.588 286.817C418.71 285.848 403.555 289.505 393.091 279.041C389.783 275.733 387.26 271.94 385.524 267.897C383.849 271.914 381.384 275.669 378.126 278.927C367.821 289.232 352.119 285.585 339.744 286.116C340.516 273.251 336.628 258.039 346.933 247.734C350.19 244.476 353.946 242.011 357.963 240.336Z" fill="#F47F68"/>
<path fill-rule="evenodd" clip-rule="evenodd" d="M247.143 241.744V194.202H339.261V241.744C339.261 240.168 323.662 238.888 304.448 238.888C321.087 229.782 333.921 221.281 333.09 219.915C332.258 218.55 318.074 224.835 301.434 233.941C311.041 218.168 317.671 204.724 316.231 203.935C314.791 203.147 305.822 215.312 296.215 231.085C296.215 212.873 294.865 198.087 293.202 198.087C291.539 198.087 290.188 212.873 290.188 231.085C280.581 215.312 271.612 203.147 270.172 203.935C268.732 204.724 275.362 218.168 284.969 233.941C268.33 224.835 254.145 218.55 253.313 219.915C252.482 221.281 265.316 229.782 281.956 238.888C262.742 238.888 247.143 240.168 247.143 241.744ZM339.261 241.744V286.326H247.143V241.744C247.143 243.321 262.742 244.601 281.956 244.601C265.316 253.707 252.482 262.208 253.313 263.573C254.145 264.938 268.33 258.654 284.969 249.548C275.362 265.32 268.732 278.765 270.172 279.553C271.612 280.341 280.581 268.176 290.188 252.404C290.188 270.616 291.539 285.402 293.202 285.402C294.865 285.402 296.215 270.616 296.215 252.404C305.822 268.176 314.791 280.341 316.231 279.553C317.671 278.765 311.041 265.32 301.434 249.548C318.074 258.654 332.258 264.938 333.09 263.573C333.921 262.208 321.087 253.707 304.448 244.601C323.662 244.601 339.261 243.321 339.261 241.744Z" fill="#7CD2F3"/>
<path fill-rule="evenodd" clip-rule="evenodd" d="M247.443 286.817L247.443 378.941L155.325 378.941L155.325 286.817H247.443ZM174.583 332.879C159.243 351.914 152.121 369.645 158.369 375.893C164.618 382.142 182.349 375.019 201.384 359.68C220.419 375.019 238.15 382.142 244.398 375.893C250.646 369.645 243.524 351.914 228.184 332.879C243.524 313.844 250.646 296.113 244.398 289.865C238.15 283.617 220.419 290.739 201.384 306.078C182.349 290.739 164.618 283.617 158.37 289.865C152.121 296.113 159.243 313.844 174.583 332.879Z" fill="#F47F68"/>
<path fill-rule="evenodd" clip-rule="evenodd" d="M431.679 286.326V378.45H339.561V286.326H431.679ZM345.29 374.118C381.499 379.703 416.53 356.529 425.068 320.266C427.316 310.716 427.515 301.159 425.95 292.057C389.741 286.472 354.71 309.646 346.172 345.91C343.924 355.459 343.725 365.016 345.29 374.118Z" fill="#C59DC9"/>
<path d="M214.076 2.80024C214.076 2.80024 247.936 -4.32861 264.601 6.32483C275.178 13.0863 285.145 31.0485 285.145 31.0485C285.145 31.0485 297.208 13.2997 308.805 7.11354C325.998 -2.05845 358.674 5.38028 358.674 5.38028C358.674 5.38028 363.979 35.4386 355.236 51.0353C349.267 61.6848 332.74 72.7427 332.74 72.7427C332.74 72.7427 349.054 87.565 354.361 100.109C361.441 116.845 356.154 146.606 356.154 146.606C356.154 146.606 323.203 152.235 306.392 142.346C295.063 135.682 283.601 117.582 283.601 117.582C283.601 117.582 272.963 135.117 262.188 141.557C245.196 151.714 211.556 144.026 211.556 144.026C211.556 144.026 206.903 111.646 216.185 94.6454C222.288 83.4667 238.714 71.065 238.714 71.065C238.714 71.065 222.7 59.3686 217.007 48.5689C208.655 32.7252 214.076 2.80024 214.076 2.80024Z" fill="#DD9BFF"/>
<circle cx="314.774" cy="87.2044" r="11.3558" fill="#C584E6"/>
<circle cx="258.209" cy="88.9185" r="11.3558" fill="#C584E6"/>
<path d="M269.989 119.41L274.922 194.12" stroke="#DD9BFF" stroke-width="5"/>
<path d="M299.051 119.727L293.563 193.692" stroke="#DD9BFF" stroke-width="5"/>
<path d="M298.325 186.636C294.659 186.51 291.568 189.858 291.42 194.116L304.697 194.575C304.844 190.317 301.991 186.763 298.325 186.636Z" fill="#DD9BFF"/>
<path d="M270.206 186.581C266.539 186.677 263.657 190.207 263.769 194.466L277.048 194.118C276.937 189.859 273.873 186.485 270.206 186.581Z" fill="#DD9BFF"/>
<path d="M284.349 86.9901C284.349 90.6326 291.634 90.4183 291.634 86.9901" stroke="#2F2D2D" stroke-width="2" stroke-linecap="round"/>
<circle cx="269.565" cy="74.5629" r="11.9986" fill="white"/>
<circle cx="303.418" cy="74.5629" r="11.9986" fill="white"/>
<circle cx="267.851" cy="71.1346" r="7.28488" fill="#2F2D2D"/>
<circle cx="300.419" cy="71.1346" r="7.28488" fill="#2F2D2D"/>
<rect x="254.749" y="132.475" width="92.367" height="13.2842" transform="rotate(-29.4886 254.749 132.475)" fill="white"/>
<path d="M351.681 64.7931L362.467 58.6937C364.87 57.3344 367.921 58.181 369.28 60.5847L381.539 82.2616C382.898 84.6652 382.051 87.7158 379.648 89.0751L368.862 95.1745L351.681 64.7931Z" fill="#2F2D2D"/>
<path d="M323.943 90.2022C321.224 85.3948 322.917 79.2937 327.725 76.5751L351.557 63.0977L370.12 95.9225L346.288 109.4C341.48 112.119 335.379 110.425 332.661 105.618L323.943 90.2022Z" fill="#6BFFC0"/>
<rect x="226.11" y="148.662" width="34.7058" height="13.223" transform="rotate(-29.4886 226.11 148.662)" fill="white"/>
<path d="M221.98 158.559C220.17 155.359 221.297 151.298 224.497 149.488L226.694 148.246L233.247 159.835L231.051 161.077C227.851 162.887 223.789 161.759 221.98 158.559V158.559Z" fill="#6BFFC0"/>
<path d="M272.952 131.744C272.952 131.744 261.102 154.899 248.315 155.192C238.33 155.42 228.627 146.15 228.627 146.15" stroke="#DD9BFF" stroke-width="5" stroke-linecap="round"/>
<path d="M334.376 146.603C334.376 146.603 311.993 159.886 299.584 150.277C289.894 142.775 284.992 126.281 284.992 126.281" stroke="#DD9BFF" stroke-width="5" stroke-linecap="round"/>
</svg>
