<svg width="390" height="94" viewBox="0 0 390 94" fill="none" xmlns="http://www.w3.org/2000/svg">
<path fill-rule="evenodd" clip-rule="evenodd" d="M47.0875 46.2103C46.5797 46.194 46.07 46.1862 45.5587 46.1862C46.07 46.1862 46.5797 46.178 47.0875 46.162V46.2103ZM47.0875 46.162V0.124045H93.1224C92.3315 25.1759 72.139 45.3696 47.0875 46.162ZM93.1224 0.124045C93.1383 -0.382569 93.1465 -0.891546 93.1465 -1.40205C93.1465 -0.891546 93.1543 -0.382569 93.1707 0.124045H93.1224ZM93.1707 0.124045H139.206V46.162C114.154 45.3696 93.9612 25.1759 93.1707 0.124045ZM139.206 46.162C139.713 46.178 140.223 46.1862 140.734 46.1862C140.223 46.1862 139.713 46.194 139.206 46.2103V46.162ZM139.206 46.2103V92.248H93.1707C93.9612 67.1965 114.154 47.0024 139.206 46.2103ZM93.1707 92.248C93.1543 92.755 93.1465 93.2635 93.1465 93.774C93.1465 93.2635 93.1383 92.755 93.1224 92.248H93.1707ZM93.1224 92.248H47.0875V46.2103C72.139 47.0024 92.3315 67.1965 93.1224 92.248Z" fill="#FDDC80"/>
<path fill-rule="evenodd" clip-rule="evenodd" d="M144.935 87.9158C143.37 78.8136 143.569 69.2572 145.817 59.7073C154.355 23.4433 189.386 0.270111 225.596 5.85524C227.16 14.9573 226.961 24.5138 224.713 34.0637C216.175 70.3277 181.144 93.5008 144.935 87.9158Z" fill="#7CD2F3"/>
<path fill-rule="evenodd" clip-rule="evenodd" d="M-25.7721 46.677C-41.1116 27.6419 -48.2339 9.91088 -41.9856 3.66256C-35.7376 -2.58546 -18.0066 4.53679 1.02853 19.8763C20.0636 4.5368 37.7947 -2.58543 44.0427 3.6626C50.291 9.91092 43.1687 27.6419 27.8292 46.677C43.1687 65.7121 50.291 83.4431 44.043 89.6912C37.7947 95.9395 20.0637 88.8172 1.02856 73.4777C-18.0065 88.8172 -35.7376 95.9395 -41.9859 89.6912C-48.2339 83.4432 -41.1116 65.7121 -25.7721 46.677Z" fill="#C59DC9"/>
<path fill-rule="evenodd" clip-rule="evenodd" d="M416.997 46.2552C390.733 46.2552 369.41 67.5786 369.41 93.8431C369.41 67.5786 348.086 46.2552 321.822 46.2552C348.086 46.2552 369.41 24.9315 369.41 -1.33299C369.41 24.9315 390.733 46.2552 416.997 46.2552Z" fill="#FDDC80"/>
<path fill-rule="evenodd" clip-rule="evenodd" d="M323.351 0.684098L323.351 92.8082L231.233 92.8082L231.233 0.684098H323.351ZM250.491 46.7461C235.152 65.7812 228.029 83.5123 234.277 89.7603C240.526 96.0087 258.257 88.8863 277.292 73.5468C296.327 88.8863 314.058 96.0086 320.306 89.7603C326.554 83.5123 319.432 65.7813 304.092 46.7461C319.432 27.711 326.554 9.98005 320.306 3.73173C314.058 -2.5163 296.327 4.60593 277.292 19.9454C258.257 4.60593 240.526 -2.51633 234.278 3.7317C228.029 9.98002 235.152 27.711 250.491 46.7461Z" fill="#F47F68"/>
</svg>
