<svg width="359" height="128" viewBox="0 0 359 128" fill="none" xmlns="http://www.w3.org/2000/svg">
<path d="M149.625 122H146.375L146.395 119.601H149.625C150.432 119.601 151.112 119.419 151.666 119.057C152.219 118.688 152.636 118.151 152.917 117.447C153.204 116.743 153.347 115.892 153.347 114.894V114.166C153.347 113.4 153.265 112.727 153.101 112.146C152.944 111.565 152.708 111.076 152.394 110.68C152.079 110.283 151.693 109.986 151.235 109.788C150.777 109.583 150.25 109.48 149.656 109.48H146.313V107.07H149.656C150.654 107.07 151.566 107.241 152.394 107.583C153.228 107.918 153.949 108.4 154.557 109.029C155.166 109.658 155.634 110.41 155.962 111.285C156.297 112.153 156.464 113.12 156.464 114.187V114.894C156.464 115.954 156.297 116.921 155.962 117.796C155.634 118.671 155.166 119.423 154.557 120.052C153.956 120.674 153.234 121.156 152.394 121.498C151.56 121.833 150.637 122 149.625 122ZM148.118 107.07V122H145.042V107.07H148.118ZM164.503 119.498V114.556C164.503 114.2 164.445 113.896 164.329 113.643C164.213 113.383 164.032 113.182 163.786 113.038C163.546 112.895 163.235 112.823 162.853 112.823C162.524 112.823 162.241 112.881 162.001 112.997C161.762 113.106 161.578 113.267 161.448 113.479C161.318 113.684 161.253 113.927 161.253 114.207H158.3C158.3 113.735 158.409 113.288 158.628 112.864C158.847 112.44 159.165 112.067 159.582 111.746C159.999 111.418 160.494 111.162 161.068 110.977C161.649 110.792 162.299 110.7 163.017 110.7C163.878 110.7 164.644 110.844 165.313 111.131C165.983 111.418 166.51 111.849 166.893 112.423C167.282 112.997 167.477 113.715 167.477 114.576V119.324C167.477 119.932 167.515 120.431 167.59 120.821C167.665 121.204 167.774 121.539 167.918 121.826V122H164.934C164.791 121.699 164.681 121.323 164.606 120.872C164.538 120.414 164.503 119.956 164.503 119.498ZM164.893 115.243L164.914 116.914H163.263C162.873 116.914 162.535 116.958 162.248 117.047C161.96 117.136 161.725 117.263 161.54 117.427C161.355 117.584 161.219 117.769 161.13 117.98C161.048 118.192 161.007 118.425 161.007 118.678C161.007 118.931 161.065 119.16 161.181 119.365C161.297 119.563 161.465 119.72 161.684 119.836C161.902 119.946 162.159 120 162.453 120C162.897 120 163.283 119.912 163.611 119.734C163.939 119.556 164.192 119.337 164.37 119.078C164.555 118.818 164.65 118.572 164.657 118.339L165.437 119.59C165.327 119.871 165.177 120.161 164.985 120.462C164.801 120.763 164.565 121.046 164.278 121.313C163.991 121.573 163.646 121.788 163.242 121.959C162.839 122.123 162.36 122.205 161.807 122.205C161.103 122.205 160.463 122.065 159.889 121.785C159.322 121.498 158.871 121.104 158.536 120.605C158.208 120.1 158.043 119.525 158.043 118.883C158.043 118.302 158.153 117.786 158.372 117.334C158.59 116.883 158.912 116.504 159.335 116.196C159.766 115.882 160.303 115.646 160.945 115.489C161.588 115.325 162.333 115.243 163.181 115.243H164.893ZM176.306 119.58V106.25H179.279V122H176.603L176.306 119.58ZM169.292 116.586V116.371C169.292 115.523 169.388 114.754 169.579 114.063C169.771 113.366 170.051 112.768 170.42 112.269C170.789 111.77 171.244 111.384 171.784 111.11C172.324 110.837 172.939 110.7 173.629 110.7C174.279 110.7 174.846 110.837 175.332 111.11C175.824 111.384 176.241 111.773 176.583 112.279C176.931 112.778 177.211 113.37 177.423 114.053C177.635 114.73 177.789 115.472 177.885 116.278V116.75C177.789 117.522 177.635 118.24 177.423 118.903C177.211 119.566 176.931 120.147 176.583 120.646C176.241 121.139 175.824 121.521 175.332 121.795C174.839 122.068 174.265 122.205 173.609 122.205C172.918 122.205 172.303 122.065 171.763 121.785C171.23 121.504 170.779 121.111 170.41 120.605C170.047 120.1 169.771 119.505 169.579 118.821C169.388 118.138 169.292 117.393 169.292 116.586ZM172.245 116.371V116.586C172.245 117.044 172.279 117.471 172.348 117.868C172.423 118.264 172.542 118.616 172.707 118.924C172.877 119.225 173.096 119.46 173.363 119.631C173.636 119.795 173.968 119.877 174.357 119.877C174.863 119.877 175.28 119.765 175.608 119.539C175.937 119.307 176.186 118.989 176.357 118.585C176.535 118.182 176.637 117.717 176.665 117.191V115.848C176.644 115.417 176.583 115.031 176.48 114.689C176.384 114.34 176.241 114.043 176.049 113.797C175.865 113.551 175.632 113.359 175.352 113.223C175.079 113.086 174.754 113.018 174.378 113.018C173.995 113.018 173.667 113.106 173.394 113.284C173.12 113.455 172.898 113.691 172.727 113.992C172.563 114.292 172.44 114.648 172.358 115.058C172.283 115.461 172.245 115.899 172.245 116.371ZM181.115 116.565V116.35C181.115 115.537 181.231 114.788 181.463 114.104C181.696 113.414 182.034 112.816 182.479 112.31C182.923 111.804 183.47 111.411 184.119 111.131C184.769 110.844 185.514 110.7 186.354 110.7C187.195 110.7 187.944 110.844 188.6 111.131C189.256 111.411 189.807 111.804 190.251 112.31C190.702 112.816 191.044 113.414 191.276 114.104C191.509 114.788 191.625 115.537 191.625 116.35V116.565C191.625 117.372 191.509 118.121 191.276 118.811C191.044 119.495 190.702 120.093 190.251 120.605C189.807 121.111 189.26 121.504 188.61 121.785C187.961 122.065 187.216 122.205 186.375 122.205C185.534 122.205 184.786 122.065 184.129 121.785C183.48 121.504 182.93 121.111 182.479 120.605C182.034 120.093 181.696 119.495 181.463 118.811C181.231 118.121 181.115 117.372 181.115 116.565ZM184.068 116.35V116.565C184.068 117.03 184.109 117.464 184.191 117.868C184.273 118.271 184.403 118.626 184.581 118.934C184.765 119.235 185.004 119.471 185.298 119.642C185.592 119.812 185.951 119.898 186.375 119.898C186.785 119.898 187.137 119.812 187.431 119.642C187.725 119.471 187.961 119.235 188.139 118.934C188.316 118.626 188.446 118.271 188.528 117.868C188.617 117.464 188.662 117.03 188.662 116.565V116.35C188.662 115.899 188.617 115.475 188.528 115.079C188.446 114.675 188.313 114.32 188.128 114.012C187.951 113.698 187.715 113.452 187.421 113.274C187.127 113.096 186.771 113.007 186.354 113.007C185.938 113.007 185.582 113.096 185.288 113.274C185.001 113.452 184.765 113.698 184.581 114.012C184.403 114.32 184.273 114.675 184.191 115.079C184.109 115.475 184.068 115.899 184.068 116.35Z" fill="white"/>
<path fill-rule="evenodd" clip-rule="evenodd" d="M25.6997 19.7011C25.6997 8.8278 26.5058 6.10352e-05 27.4989 6.10352e-05C28.4918 6.10352e-05 29.2977 8.8278 29.2977 19.7011C35.0335 10.2844 40.3883 3.02153 41.248 3.49204C42.108 3.96275 38.1495 11.9896 32.4139 21.4063C42.3485 15.9697 50.8169 12.2174 51.3134 13.0326C51.8098 13.8477 44.1473 18.9234 34.213 24.36C45.6843 24.36 54.9975 25.124 54.9975 26.0652C54.9975 27.0063 45.6843 27.7705 34.213 27.7705C44.1473 33.2072 51.8098 38.2827 51.3134 39.0978C50.8169 39.9129 42.3485 36.1608 32.4139 30.724C38.1495 40.1407 42.108 48.1678 41.248 48.6383C40.3883 49.109 35.0335 41.8459 29.2977 32.4295C29.2977 43.3027 28.4918 52.1305 27.4989 52.1305C26.5058 52.1305 25.6997 43.3027 25.6997 32.4295C19.964 41.8459 14.6092 49.109 13.7494 48.6383C12.8894 48.1678 16.848 40.1407 22.5836 30.724C12.6492 36.1608 4.18059 39.9129 3.68404 39.0978C3.18769 38.2827 10.8501 33.2072 20.7844 27.7705C9.31312 27.7705 0 27.0063 0 26.0652C0 25.124 9.31312 24.36 20.7844 24.36C10.8501 18.9234 3.18769 13.8477 3.68404 13.0326C4.18059 12.2174 12.6492 15.9697 22.5836 21.4063C16.848 11.9896 12.8894 3.96275 13.7494 3.49204C14.6092 3.02153 19.964 10.2844 25.6997 19.7011Z" fill="#F47F68"/>
<path d="M69.7607 5.19839C75.244 5.1984 81.9171 5.84651 87.2294 9.13687C92.587 12.4553 96.4784 18.4079 96.4785 28.8097C96.4785 38.8395 92.6409 44.7861 87.3203 48.1964C82.0389 51.5814 75.3682 52.421 69.7607 52.4211H62.4218C62.1105 52.421 61.8406 52.2893 61.6523 52.1193C61.4748 51.9591 61.3056 51.7034 61.3056 51.4005V32.7589H70.8769V42.9445C73.5713 43.0254 77.4252 42.843 80.6669 41.1154C82.3759 40.2046 83.914 38.8653 85.0283 36.9005C86.144 34.9332 86.8515 32.3099 86.8515 28.8097C86.8515 23.4376 85.0886 19.8009 82.2119 17.5548C79.4121 15.3691 75.4794 14.4415 70.8769 14.6144V24.8605H61.3056V6.2189C61.3056 5.91627 61.4751 5.66127 61.6523 5.50113C61.8406 5.33114 62.1104 5.1984 62.4218 5.19839H69.7607Z" fill="white" fill-opacity="0.7" stroke="#2F2D2D"/>
<path d="M65.9551 2.49997C71.4384 2.49997 78.1115 3.14808 83.4238 6.43845C88.7814 9.75685 92.6728 15.7095 92.6729 26.1113C92.6729 36.141 88.8353 42.0877 83.5146 45.498C78.2333 48.883 71.5626 49.7226 65.9551 49.7226H58.6162C58.3049 49.7226 58.035 49.5909 57.8467 49.4209C57.6692 49.2607 57.5 49.005 57.5 48.7021V30.0605H67.0713V40.2461C69.7657 40.327 73.6196 40.1445 76.8613 38.417C78.5703 37.5062 80.1084 36.1669 81.2227 34.2021C82.3384 32.2347 83.0459 29.6115 83.0459 26.1113C83.0459 20.7392 81.283 17.1025 78.4062 14.8564C75.6065 12.6706 71.6738 11.7431 67.0713 11.916V22.1621H57.5V3.52048C57.5 3.21784 57.6695 2.96285 57.8467 2.8027C58.035 2.63272 58.3048 2.49997 58.6162 2.49997H65.9551Z" fill="white" stroke="#2F2D2D"/>
<path d="M163.584 21.0242L163.737 21.0369C163.792 21.0448 163.849 21.0561 163.901 21.0701C163.956 21.0846 164.027 21.1079 164.099 21.1443C164.145 21.168 164.254 21.2316 164.338 21.3552L164.341 21.3533L177.679 40.4021V21.8718C177.679 21.5975 177.836 21.381 177.991 21.2537C178.159 21.1153 178.386 21.0242 178.641 21.0242H183.623C184.136 21.0244 184.547 21.4096 184.547 21.8718V52.0652C184.547 52.5276 184.136 52.9126 183.623 52.9128H178.526C178.435 52.9128 178.314 52.8949 178.209 52.8669C178.154 52.8524 178.082 52.8293 178.011 52.7927C177.964 52.7688 177.854 52.7051 177.77 52.5808L177.768 52.5828L164.475 33.5466L164.558 55.5281L164.561 56.0564L164.033 56.0291L158.827 55.7615L158.363 55.738L158.352 55.2742L157.562 21.8835V21.8718C157.562 21.6047 157.713 21.3944 157.842 21.2742C157.979 21.1463 158.191 21.0243 158.448 21.0242H163.584Z" fill="white" fill-opacity="0.7" stroke="#2F2D2D"/>
<path d="M160.961 19.2209C161.052 19.2209 161.173 19.2389 161.278 19.2668C161.333 19.2814 161.404 19.3047 161.475 19.3411C161.522 19.3648 161.631 19.4285 161.715 19.552L161.718 19.55L175.055 38.5989V20.0686C175.055 19.7943 175.213 19.5778 175.368 19.4504C175.536 19.3121 175.763 19.221 176.018 19.2209H181C181.513 19.2211 181.925 19.6063 181.925 20.0686V50.262C181.925 50.7245 181.513 51.1095 181 51.1096H175.903C175.812 51.1096 175.691 51.0917 175.586 51.0637C175.531 51.0492 175.459 51.026 175.388 50.9895C175.341 50.9656 175.231 50.9018 175.147 50.7776L175.145 50.7795L161.863 31.759L162.114 56.1633L162.121 56.7502L161.54 56.6633L154.972 55.675L154.542 55.6106L154.547 55.175L154.939 20.0627C154.941 19.7984 155.091 19.5903 155.219 19.4709C155.355 19.3431 155.568 19.2211 155.825 19.2209H160.961Z" fill="white" stroke="#2F2D2D"/>
<path d="M166.807 56.9034C172.291 56.9034 178.964 57.5516 184.276 60.8419C189.634 64.1603 193.525 70.113 193.525 80.5148C193.525 90.5445 189.688 96.4912 184.367 99.9015C179.086 103.286 172.415 104.126 166.807 104.126H159.469C159.157 104.126 158.887 103.994 158.699 103.824C158.522 103.664 158.352 103.408 158.352 103.106V84.464H167.924V94.6495C170.618 94.7305 174.472 94.548 177.714 92.8204C179.423 91.9096 180.961 90.5704 182.075 88.6056C183.191 86.6382 183.898 84.0149 183.898 80.5148C183.898 75.1426 182.135 71.506 179.259 69.2599C176.459 67.0741 172.526 66.1466 167.924 66.3195V76.5656H158.352V57.924C158.352 57.6213 158.522 57.3663 158.699 57.2062C158.887 57.0362 159.157 56.9034 159.469 56.9034H166.807Z" fill="white" fill-opacity="0.7" stroke="#2F2D2D"/>
<path d="M114.314 21.0242V27.6228H105.55V33.6111H117.174C117.58 33.6112 118.099 33.8978 118.099 34.4587V39.3621C118.099 39.6328 117.944 39.8461 117.802 39.9705C117.647 40.1054 117.428 40.2097 117.174 40.2097H105.55V46.1599H114.314V52.9128H99.5673C99.3131 52.9128 99.0929 52.8087 98.9384 52.6736C98.7963 52.5492 98.6425 52.3358 98.6425 52.0652V21.8718C98.6425 21.6012 98.7963 21.3878 98.9384 21.2634C99.0928 21.1283 99.313 21.0242 99.5673 21.0242H114.314Z" fill="white" fill-opacity="0.7" stroke="#2F2D2D"/>
<path d="M111.692 19.2209V25.8196H102.927V31.8079H114.551C114.957 31.8079 115.476 32.0946 115.476 32.6555V37.5588C115.476 37.8295 115.321 38.0429 115.179 38.1672C115.024 38.3022 114.805 38.4064 114.551 38.4065H102.927V44.3567H111.692V51.1096H96.9445C96.6902 51.1096 96.47 51.0055 96.3156 50.8704C96.1734 50.746 96.0197 50.5326 96.0197 50.262V20.0686C96.0197 19.7979 96.1735 19.5846 96.3156 19.4602C96.47 19.3251 96.6901 19.2209 96.9445 19.2209H111.692Z" fill="white" stroke="#2F2D2D"/>
<path d="M128.139 21.0242C133.648 21.0243 137.987 24.7367 138.095 30.2673C138.119 30.4198 138.08 30.5542 138.036 30.6453C137.98 30.7581 137.899 30.8475 137.817 30.9138C137.652 31.0473 137.425 31.1365 137.173 31.1365H132.347C132.095 31.1364 131.88 31.0334 131.733 30.9138C131.658 30.8529 131.588 30.7773 131.534 30.6912C131.486 30.6151 131.428 30.4944 131.423 30.3445V30.3455C131.39 29.3839 131.009 28.7137 130.447 28.2742C129.871 27.8243 129.063 27.5838 128.139 27.5837C127.174 27.5837 126.336 27.8731 125.746 28.4021C125.164 28.924 124.778 29.7189 124.778 30.8289C124.778 31.7912 125.178 32.4987 125.781 32.9763C126.396 33.4636 127.246 33.7273 128.139 33.7273C128.355 33.7273 130.604 33.7275 132.905 34.8162H132.906C136.34 36.4108 138.214 39.6098 138.214 43.4167C138.214 46.4577 136.993 48.8453 135.106 50.4656C133.228 52.0782 130.714 52.9128 128.139 52.9128H127.6V46.3533H128.139C129.988 46.3532 131.499 45.1138 131.5 43.4167C131.5 42.4472 131.052 41.6618 130.395 41.0984C129.733 40.5301 128.878 40.2061 128.125 40.1707C127.78 40.1704 125.639 40.154 123.337 39.0828V39.0837C119.957 37.5367 118.025 34.6188 118.025 30.8289C118.025 24.7118 122.973 21.0242 128.139 21.0242Z" fill="white" fill-opacity="0.7" stroke="#2F2D2D"/>
<path d="M125.516 19.2209C131.025 19.2211 135.364 22.9335 135.472 28.4641C135.496 28.6166 135.458 28.751 135.413 28.842C135.357 28.9549 135.276 29.0443 135.194 29.1106C135.03 29.2441 134.803 29.3333 134.551 29.3333H129.724C129.472 29.3332 129.257 29.2302 129.11 29.1106C129.035 29.0496 128.965 28.9741 128.911 28.8879C128.863 28.8119 128.805 28.6912 128.801 28.5413V28.5422C128.767 27.5807 128.386 26.9105 127.824 26.4709C127.248 26.0211 126.44 25.7806 125.516 25.7805C124.551 25.7805 123.713 26.0698 123.123 26.5989C122.541 27.1207 122.155 27.9157 122.155 29.0256C122.155 29.988 122.555 30.6955 123.158 31.1731C123.773 31.6604 124.624 31.9241 125.516 31.9241C125.732 31.9241 127.981 31.9243 130.282 33.0129H130.283C133.718 34.6076 135.592 37.8066 135.592 41.6135C135.592 44.6545 134.37 47.0421 132.483 48.6624C130.605 50.275 128.091 51.1096 125.516 51.1096H124.977V44.55H125.516C127.365 44.5499 128.877 43.3106 128.877 41.6135C128.877 40.644 128.429 39.8586 127.772 39.2952C127.11 38.7269 126.255 38.4028 125.502 38.3674C125.157 38.3672 123.017 38.3508 120.714 37.2795V37.2805C117.335 35.7334 115.402 32.8156 115.402 29.0256C115.402 22.9086 120.351 19.2209 125.516 19.2209Z" fill="white" stroke="#2F2D2D"/>
<path d="M153.852 21.0242V27.6228H145.087V33.6111H156.711C157.117 33.6112 157.636 33.8979 157.636 34.4587V39.3621C157.636 39.6328 157.481 39.8461 157.339 39.9705C157.185 40.1054 156.965 40.2097 156.711 40.2097H145.087V46.1599H153.852V52.9128H139.105C138.85 52.9128 138.63 52.8087 138.476 52.6736C138.334 52.5492 138.18 52.3358 138.18 52.0652V21.8718C138.18 21.6012 138.334 21.3878 138.476 21.2634C138.63 21.1283 138.85 21.0242 139.105 21.0242H153.852Z" fill="white" fill-opacity="0.7" stroke="#2F2D2D"/>
<path d="M151.229 19.2209V25.8196H142.464V31.8079H154.088C154.494 31.8079 155.013 32.0946 155.013 32.6555V37.5588C155.013 37.8295 154.858 38.0429 154.716 38.1672C154.562 38.3022 154.342 38.4064 154.088 38.4065H142.464V44.3567H151.229V51.1096H136.482C136.228 51.1096 136.007 51.0055 135.853 50.8704C135.711 50.746 135.557 50.5326 135.557 50.262V20.0686C135.557 19.7979 135.711 19.5846 135.853 19.4602C136.007 19.3251 136.227 19.2209 136.482 19.2209H151.229Z" fill="white" stroke="#2F2D2D"/>
<mask id="path-14-outside-1_34_1946" maskUnits="userSpaceOnUse" x="153.047" y="18.7211" width="38" height="84" fill="black">
<rect fill="white" x="153.047" y="18.7211" width="38" height="84"/>
<path d="M160.961 19.7211C161.038 19.7211 161.27 19.7602 161.308 19.8373L175.555 40.185V20.0688C175.555 19.9144 175.748 19.7213 176.018 19.7211H181C181.27 19.7213 181.424 19.9144 181.424 20.0688V50.2621C181.424 50.4166 181.27 50.6097 181 50.6098H175.903C175.826 50.6098 175.594 50.5709 175.555 50.4936L161.346 30.1459L161.598 54.6957L163.002 54.7055C173.926 54.7055 189.219 57.3056 189.219 77.8168C189.219 97.5766 174.15 100.928 163.002 100.928H155.663C155.327 100.928 155.047 100.639 155.047 100.408V82.2651H163.618V92.434C169.052 92.6651 180.592 92.0876 180.592 77.8168C180.592 66.839 173.365 62.6211 163.618 63.1411L163.573 70.9809H155.083L155.047 55.225C155.047 55.2111 155.047 55.1964 155.047 55.1811H155.047L155.439 20.0688C155.439 19.9145 155.632 19.7214 155.825 19.7211H160.961Z"/>
</mask>
<path d="M160.961 19.7211C161.038 19.7211 161.27 19.7602 161.308 19.8373L175.555 40.185V20.0688C175.555 19.9144 175.748 19.7213 176.018 19.7211H181C181.27 19.7213 181.424 19.9144 181.424 20.0688V50.2621C181.424 50.4166 181.27 50.6097 181 50.6098H175.903C175.826 50.6098 175.594 50.5709 175.555 50.4936L161.346 30.1459L161.598 54.6957L163.002 54.7055C173.926 54.7055 189.219 57.3056 189.219 77.8168C189.219 97.5766 174.15 100.928 163.002 100.928H155.663C155.327 100.928 155.047 100.639 155.047 100.408V82.2651H163.618V92.434C169.052 92.6651 180.592 92.0876 180.592 77.8168C180.592 66.839 173.365 62.6211 163.618 63.1411L163.573 70.9809H155.083L155.047 55.225C155.047 55.2111 155.047 55.1964 155.047 55.1811H155.047L155.439 20.0688C155.439 19.9145 155.632 19.7214 155.825 19.7211H160.961Z" fill="white"/>
<path d="M160.961 19.7211L160.961 18.7211H160.961V19.7211ZM161.308 19.8373L160.414 20.2846L160.447 20.3505L160.489 20.4109L161.308 19.8373ZM175.555 40.185L174.736 40.7586L176.555 43.3567V40.185H175.555ZM176.018 19.7211V18.7211L176.017 18.7211L176.018 19.7211ZM181 19.7211L181 18.7211H181V19.7211ZM181.424 50.2621L182.424 50.2624V50.2621H181.424ZM181 50.6098V51.6098H181L181 50.6098ZM175.555 50.4936L176.45 50.0469L176.417 49.9812L176.375 49.9211L175.555 50.4936ZM161.346 30.1459L162.166 29.5734L160.313 26.9198L160.346 30.1562L161.346 30.1459ZM161.598 54.6957L160.598 54.706L160.608 55.6889L161.591 55.6957L161.598 54.6957ZM163.002 54.7055L162.995 55.7055H163.002V54.7055ZM189.219 77.8168L190.219 77.8168V77.8168H189.219ZM155.663 100.928L155.662 101.928H155.663V100.928ZM155.047 100.408H154.047V100.408L155.047 100.408ZM155.047 82.2651V81.2651H154.047V82.2651H155.047ZM163.618 82.2651H164.618V81.2651H163.618V82.2651ZM163.618 92.434H162.618V93.3924L163.575 93.4331L163.618 92.434ZM180.592 77.8168L181.592 77.8168V77.8168H180.592ZM163.618 63.1411L163.565 62.1425L162.623 62.1927L162.618 63.1353L163.618 63.1411ZM163.573 70.9809V71.9809H164.567L164.573 70.9866L163.573 70.9809ZM155.083 70.9809L154.083 70.9832L154.085 71.9809H155.083V70.9809ZM155.047 55.225L154.047 55.225L154.047 55.2273L155.047 55.225ZM155.047 55.1811L156.047 55.1933L156.06 54.1811H155.047V55.1811ZM155.047 55.1811L154.047 55.1699L154.035 56.1811H155.047V55.1811ZM155.439 20.0688L156.439 20.08V20.0688H155.439ZM155.825 19.7211V18.7211L155.823 18.7211L155.825 19.7211ZM160.961 19.7211L160.961 20.7211C160.932 20.7211 160.913 20.7195 160.908 20.7191C160.901 20.7184 160.897 20.7179 160.897 20.7179C160.896 20.7178 160.896 20.7178 160.896 20.7177C160.896 20.7177 160.896 20.7176 160.895 20.7174C160.894 20.7172 160.892 20.7168 160.89 20.7162C160.89 20.7161 160.851 20.7065 160.793 20.6769C160.763 20.6616 160.709 20.6312 160.647 20.5797C160.587 20.53 160.489 20.4354 160.414 20.2846L161.308 19.8373L162.203 19.3901C162.046 19.0763 161.783 18.9367 161.704 18.8963C161.589 18.8378 161.481 18.8039 161.408 18.7844C161.271 18.7477 161.105 18.7211 160.961 18.7211L160.961 19.7211ZM161.308 19.8373L160.489 20.4109L174.736 40.7586L175.555 40.185L176.374 39.6114L162.127 19.2638L161.308 19.8373ZM175.555 40.185H176.555V20.0688H175.555H174.555V40.185H175.555ZM175.555 20.0688H176.555C176.555 20.2357 176.505 20.3617 176.462 20.438C176.418 20.517 176.366 20.5718 176.322 20.6086C176.231 20.6831 176.124 20.7211 176.019 20.7211L176.018 19.7211L176.017 18.7211C175.642 18.7214 175.303 18.8561 175.049 19.0657C174.822 19.2528 174.555 19.5977 174.555 20.0688H175.555ZM176.018 19.7211V20.7211H181V19.7211V18.7211H176.018V19.7211ZM181 19.7211L180.999 20.7211C180.784 20.721 180.424 20.5309 180.424 20.0688H181.424H182.424C182.424 19.2979 181.756 18.7215 181 18.7211L181 19.7211ZM181.424 20.0688H180.424V50.2621H181.424H182.424V20.0688H181.424ZM181.424 50.2621L180.424 50.2619C180.425 49.8001 180.784 49.6099 180.999 49.6098L181 50.6098L181 51.6098C181.756 51.6094 182.424 51.0332 182.424 50.2624L181.424 50.2621ZM181 50.6098V49.6098H175.903V50.6098V51.6098H181V50.6098ZM175.903 50.6098V49.6098C175.931 49.6098 175.95 49.6114 175.955 49.6118C175.962 49.6125 175.966 49.613 175.966 49.613C175.967 49.6131 175.967 49.6132 175.967 49.6132C175.967 49.6132 175.968 49.6133 175.969 49.6135C175.969 49.6137 175.971 49.6141 175.973 49.6147C175.974 49.6149 176.013 49.6245 176.071 49.6541C176.101 49.6695 176.155 49.7 176.217 49.7516C176.277 49.8013 176.375 49.8961 176.45 50.0469L175.555 50.4936L174.661 50.9403C174.817 51.2543 175.08 51.3941 175.16 51.4346C175.274 51.4932 175.383 51.5271 175.456 51.5467C175.593 51.5833 175.759 51.6098 175.903 51.6098V50.6098ZM175.555 50.4936L176.375 49.9211L162.166 29.5734L161.346 30.1459L160.526 30.7185L174.735 51.0661L175.555 50.4936ZM161.346 30.1459L160.346 30.1562L160.598 54.706L161.598 54.6957L162.598 54.6855L162.346 30.1357L161.346 30.1459ZM161.598 54.6957L161.591 55.6957L162.995 55.7055L163.002 54.7055L163.009 53.7055L161.605 53.6958L161.598 54.6957ZM163.002 54.7055V55.7055C168.421 55.7055 174.738 56.3586 179.68 59.4196C184.532 62.4246 188.219 67.8536 188.219 77.8168H189.219H190.219C190.219 67.2687 186.26 61.1422 180.734 57.7193C175.298 54.3524 168.506 53.7055 163.002 53.7055V54.7055ZM189.219 77.8168L188.219 77.8168C188.219 87.3969 184.592 92.8376 179.751 95.9405C174.831 99.094 168.509 99.9282 163.002 99.9282V100.928V101.928C168.643 101.928 175.429 101.087 180.831 97.6243C186.311 94.1115 190.219 87.9965 190.219 77.8168L189.219 77.8168ZM163.002 100.928V99.9282H155.663V100.928V101.928H163.002V100.928ZM155.663 100.928L155.663 99.9282C155.782 99.9282 155.859 99.9761 155.899 100.013C155.922 100.033 155.952 100.066 155.98 100.119C156.006 100.169 156.046 100.267 156.047 100.407L155.047 100.408L154.047 100.408C154.047 100.898 154.316 101.277 154.558 101.497C154.823 101.735 155.208 101.928 155.662 101.928L155.663 100.928ZM155.047 100.408H156.047V82.2651H155.047H154.047V100.408H155.047ZM155.047 82.2651V83.2651H163.618V82.2651V81.2651H155.047V82.2651ZM163.618 82.2651H162.618V92.434H163.618H164.618V82.2651H163.618ZM163.618 92.434L163.575 93.4331C166.323 93.55 170.798 93.4789 174.613 91.4462C176.541 90.4187 178.302 88.8893 179.574 86.6471C180.843 84.4096 181.592 81.5198 181.592 77.8168L180.592 77.8168L179.592 77.8168C179.592 81.2492 178.899 83.7831 177.834 85.6604C176.772 87.5329 175.309 88.8092 173.672 89.6811C170.359 91.447 166.347 91.5492 163.66 91.4349L163.618 92.434ZM180.592 77.8168H181.592C181.592 72.0948 179.697 67.972 176.376 65.379C173.091 62.8146 168.574 61.8753 163.565 62.1425L163.618 63.1411L163.671 64.1396C168.41 63.8869 172.38 64.7965 175.145 66.9555C177.874 69.086 179.592 72.561 179.592 77.8168H180.592ZM163.618 63.1411L162.618 63.1353L162.573 70.9752L163.573 70.9809L164.573 70.9866L164.618 63.1468L163.618 63.1411ZM163.573 70.9809V69.9809H155.083V70.9809V71.9809H163.573V70.9809ZM155.083 70.9809L156.083 70.9786L156.047 55.2227L155.047 55.225L154.047 55.2273L154.083 70.9832L155.083 70.9809ZM155.047 55.225L156.047 55.2251C156.047 55.2308 156.046 55.2348 156.046 55.236C156.046 55.2369 156.046 55.2369 156.046 55.2337C156.047 55.2316 156.047 55.2252 156.047 55.2192C156.047 55.2126 156.047 55.2036 156.047 55.1933L155.047 55.1811L154.048 55.1689C154.048 55.1655 154.048 55.1623 154.047 55.1735C154.047 55.1804 154.047 55.2012 154.047 55.225L155.047 55.225ZM155.047 55.1811V54.1811H155.047V55.1811V56.1811H155.047V55.1811ZM155.047 55.1811L156.046 55.1923L156.439 20.08L155.439 20.0688L154.439 20.0576L154.047 55.1699L155.047 55.1811ZM155.439 20.0688H156.439C156.439 20.2335 156.39 20.3533 156.356 20.4177C156.32 20.486 156.278 20.5342 156.242 20.5678C156.186 20.6208 156.05 20.7208 155.826 20.7211L155.825 19.7211L155.823 18.7211C155.407 18.7218 155.078 18.9184 154.877 19.1066C154.692 19.2793 154.439 19.6119 154.439 20.0688H155.439ZM155.825 19.7211V20.7211H160.961V19.7211V18.7211H155.825V19.7211Z" fill="#2F2D2D" mask="url(#path-14-outside-1_34_1946)"/>
<path d="M208.449 21.0242C208.962 21.0242 209.374 21.4094 209.374 21.8718V52.0652C209.374 52.5278 208.962 52.9128 208.449 52.9128H203.391C203.137 52.9128 202.917 52.8087 202.762 52.6736C202.62 52.5493 202.466 52.3359 202.466 52.0652V47.1208H191.767V52.0652C191.767 52.5279 191.356 52.9128 190.842 52.9128H185.785C185.531 52.9128 185.31 52.8087 185.156 52.6736C185.014 52.5492 184.86 52.3358 184.86 52.0652V40.3298H191.767V40.3679H202.466V21.8718C202.466 21.6011 202.62 21.3877 202.762 21.2634C202.917 21.1284 203.137 21.0242 203.391 21.0242H208.449ZM190.842 21.0242C191.356 21.0242 191.767 21.4093 191.767 21.8718V35.4216H184.86V21.8718C184.86 21.6012 185.014 21.3878 185.156 21.2634C185.31 21.1283 185.53 21.0242 185.785 21.0242H190.842Z" fill="white" fill-opacity="0.7" stroke="#2F2D2D"/>
<path d="M205.826 19.2209C206.339 19.2209 206.751 19.6062 206.751 20.0686V50.262C206.751 50.7245 206.339 51.1096 205.826 51.1096H200.768C200.514 51.1096 200.294 51.0054 200.139 50.8704C199.997 50.746 199.844 50.5327 199.844 50.262V45.3176H189.144V50.262C189.144 50.7246 188.733 51.1096 188.22 51.1096H183.162C182.908 51.1096 182.687 51.0055 182.533 50.8704C182.391 50.746 182.237 50.5326 182.237 50.262V38.5266H189.144V38.5647H199.844V20.0686C199.844 19.7978 199.997 19.5845 200.139 19.4602C200.294 19.3251 200.514 19.2209 200.768 19.2209H205.826ZM188.22 19.2209C188.733 19.2209 189.144 19.6061 189.144 20.0686V33.6184H182.237V20.0686C182.237 19.7979 182.391 19.5846 182.533 19.4602C182.687 19.3251 182.908 19.2209 183.162 19.2209H188.22Z" fill="white" stroke="#2F2D2D"/>
<path d="M222.194 21.0242C222.484 21.0242 222.889 21.1627 223.047 21.575L234.784 51.7684H234.783C234.907 52.0528 234.855 52.3545 234.684 52.575C234.513 52.794 234.246 52.9129 233.971 52.9129H228.643C228.491 52.9129 228.329 52.8673 228.191 52.7889C228.062 52.7147 227.896 52.5747 227.823 52.3465V52.3475L222.196 36.4666L216.643 52.3465L216.642 52.3455C216.568 52.5777 216.398 52.7201 216.257 52.7957C216.106 52.8763 215.937 52.9129 215.785 52.9129H210.495C210.218 52.9128 209.924 52.8185 209.734 52.575C209.544 52.3301 209.532 52.0251 209.644 51.7684H209.643L221.342 21.575C221.499 21.1627 221.905 21.0242 222.194 21.0242Z" fill="white" fill-opacity="0.7" stroke="#2F2D2D"/>
<path d="M219.572 19.2209C219.861 19.2209 220.266 19.3594 220.424 19.7717L232.161 49.9651H232.16C232.284 50.2495 232.232 50.5512 232.061 50.7717C231.89 50.9907 231.623 51.1096 231.348 51.1096H226.02C225.868 51.1096 225.706 51.064 225.569 50.9856C225.439 50.9114 225.273 50.7714 225.2 50.5432V50.5442L219.573 34.6633L214.021 50.5432L214.019 50.5422C213.945 50.7744 213.776 50.9168 213.634 50.9924C213.483 51.073 213.314 51.1096 213.162 51.1096H207.872C207.595 51.1095 207.301 51.0152 207.112 50.7717C206.921 50.5268 206.91 50.2218 207.022 49.9651H207.021L218.719 19.7717C218.876 19.3594 219.282 19.2209 219.572 19.2209Z" fill="white" stroke="#2F2D2D"/>
<path d="M211.519 72.6115V79.2101H202.755V85.1984H214.379C214.785 85.1985 215.303 85.4851 215.303 86.0461V90.9494C215.303 91.2201 215.149 91.4334 215.007 91.5578C214.852 91.6927 214.633 91.797 214.379 91.797H202.755V97.7472H211.519V104.5H196.772C196.518 104.5 196.298 104.396 196.143 104.261C196.001 104.137 195.847 103.923 195.847 103.652V73.4591C195.847 73.1885 196.001 72.9751 196.143 72.8507C196.298 72.7156 196.518 72.6115 196.772 72.6115H211.519Z" fill="white" fill-opacity="0.7" stroke="#2F2D2D"/>
<path d="M208.732 70.4803V77.0789H199.968V83.0672H211.592C211.998 83.0673 212.517 83.354 212.517 83.9149V88.8182C212.517 89.0889 212.362 89.3023 212.22 89.4266C212.065 89.5616 211.846 89.6658 211.592 89.6659H199.968V95.6161H208.732V102.369H193.985C193.731 102.369 193.511 102.265 193.356 102.13C193.214 102.005 193.061 101.792 193.06 101.521V71.328C193.06 71.0573 193.214 70.8439 193.356 70.7196C193.511 70.5844 193.731 70.4803 193.985 70.4803H208.732Z" fill="white" stroke="#2F2D2D"/>
<path d="M225.344 72.6115C230.852 72.6116 235.192 76.324 235.3 81.8546C235.324 82.0071 235.285 82.1415 235.241 82.2326C235.185 82.3454 235.103 82.4348 235.022 82.5011C234.857 82.6346 234.63 82.7238 234.378 82.7238H229.552C229.299 82.7237 229.085 82.6207 228.938 82.5011C228.863 82.4402 228.793 82.3646 228.739 82.2785C228.691 82.2025 228.632 82.0818 228.628 81.9318V81.9328C228.595 80.9713 228.214 80.301 227.652 79.8615C227.076 79.4117 226.267 79.1711 225.344 79.1711C224.379 79.1711 223.541 79.4604 222.951 79.9894C222.368 80.5113 221.983 81.3062 221.983 82.4162C221.983 83.3785 222.383 84.0861 222.986 84.5636C223.601 85.0509 224.451 85.3146 225.344 85.3146C225.56 85.3146 227.809 85.3148 230.11 86.4035H230.111C233.545 87.9981 235.419 91.1971 235.419 95.0041C235.419 98.0451 234.198 100.433 232.311 102.053C230.433 103.665 227.919 104.5 225.344 104.5H224.805V97.9406H225.344C227.193 97.9405 228.704 96.7011 228.704 95.0041C228.704 94.0345 228.257 93.2491 227.6 92.6857C226.938 92.1174 226.083 91.7934 225.329 91.758C224.985 91.7577 222.844 91.7413 220.541 90.6701V90.6711C217.162 89.124 215.23 86.2061 215.23 82.4162C215.23 76.2991 220.178 72.6115 225.344 72.6115Z" fill="white" fill-opacity="0.7" stroke="#2F2D2D"/>
<path d="M222.557 70.4803C228.065 70.4804 232.405 74.1929 232.513 79.7235C232.537 79.8759 232.498 80.0104 232.454 80.1014C232.398 80.2143 232.317 80.3037 232.235 80.37C232.07 80.5035 231.843 80.5926 231.591 80.5926H226.765C226.512 80.5925 226.298 80.4895 226.151 80.37C226.076 80.309 226.006 80.2335 225.952 80.1473C225.904 80.0713 225.846 79.9506 225.841 79.8006V79.8016C225.808 78.8401 225.427 78.1698 224.865 77.7303C224.289 77.2805 223.481 77.0399 222.557 77.0399C221.592 77.0399 220.754 77.3292 220.164 77.8582C219.582 78.3801 219.196 79.1751 219.196 80.285C219.196 81.2473 219.596 81.9549 220.199 82.4325C220.814 82.9197 221.664 83.1834 222.557 83.1834C222.773 83.1834 225.022 83.1837 227.323 84.2723H227.324C230.758 85.8669 232.632 89.066 232.632 92.8729C232.632 95.9139 231.411 98.3015 229.524 99.9217C227.646 101.534 225.132 102.369 222.557 102.369H222.018V95.8094H222.557C224.406 95.8093 225.917 94.57 225.918 92.8729C225.918 91.9034 225.47 91.118 224.813 90.5545C224.151 89.9862 223.296 89.6622 222.543 89.6268C222.198 89.6266 220.057 89.6102 217.755 88.5389V88.5399C214.375 86.9928 212.443 84.075 212.443 80.285C212.443 74.168 217.391 70.4803 222.557 70.4803Z" fill="white" stroke="#2F2D2D"/>
<path d="M245.883 72.6115V98.2101H248.471C248.701 98.2101 248.932 98.2766 249.113 98.4337C249.298 98.5943 249.396 98.8208 249.396 99.0578V103.652C249.396 104.115 248.985 104.5 248.471 104.5H236.309C236.055 104.5 235.835 104.396 235.68 104.261C235.538 104.137 235.385 103.923 235.385 103.652V99.0578C235.385 98.4966 235.904 98.2101 236.309 98.2101H238.975V72.6115H245.883Z" fill="white" fill-opacity="0.7" stroke="#2F2D2D"/>
<path d="M243.096 70.4803V96.0789H245.685C245.914 96.0789 246.145 96.1454 246.326 96.3026C246.512 96.4632 246.609 96.6896 246.609 96.9266V101.521C246.609 101.984 246.198 102.369 245.685 102.369H233.523C233.268 102.369 233.048 102.265 232.894 102.13C232.752 102.005 232.598 101.792 232.598 101.521V96.9266C232.598 96.3655 233.117 96.0789 233.523 96.0789H236.189V70.4803H243.096Z" fill="white" stroke="#2F2D2D"/>
<path d="M272.681 72.6115L272.775 72.6164C273.244 72.6603 273.605 73.0256 273.605 73.4591V79.2873H267.177C265.319 79.2106 262.507 79.276 260.174 80.4816C259.017 81.0791 257.981 81.9546 257.231 83.2365C256.481 84.5202 255.999 86.2417 255.999 88.5558C255.999 92.1015 257.196 94.4769 259.131 95.9416C260.992 97.3506 263.61 97.9702 266.698 97.88V91.1408H260.752V84.2336H273.605V103.652C273.605 104.115 273.194 104.5 272.681 104.5H267.661C263.858 104.5 259.215 104.068 255.512 101.847C251.762 99.5978 249.053 95.5624 249.053 88.5558C249.053 81.796 251.736 77.7667 255.462 75.4572C259.147 73.1732 263.788 72.6115 267.661 72.6115H272.681Z" fill="white" fill-opacity="0.7" stroke="#2F2D2D"/>
<path d="M269.894 70.4803L269.988 70.4852C270.457 70.5292 270.818 70.8945 270.818 71.328V77.1561H264.39C262.532 77.0794 259.72 77.1449 257.387 78.3504C256.23 78.9479 255.194 79.8235 254.444 81.1053C253.694 82.389 253.212 84.1106 253.212 86.4247C253.212 89.9704 254.409 92.3457 256.344 93.8104C258.205 95.2195 260.823 95.839 263.911 95.7489V89.0096H257.965V82.1024H270.818V101.521C270.818 101.984 270.407 102.369 269.894 102.369H264.874C261.071 102.369 256.428 101.936 252.725 99.7157C248.975 97.4667 246.266 93.4313 246.266 86.4247C246.266 79.6648 248.949 75.6355 252.675 73.326C256.36 71.042 261.001 70.4803 264.874 70.4803H269.894Z" fill="white" stroke="#2F2D2D"/>
<path d="M279.823 72.6115C279.915 72.6115 280.036 72.6295 280.141 72.6574C280.195 72.6719 280.267 72.6952 280.338 72.7316C280.384 72.7553 280.494 72.819 280.577 72.9425L280.58 72.9406L293.918 91.9894V73.4591C293.918 73.1849 294.076 72.9683 294.231 72.841C294.399 72.7026 294.626 72.6116 294.881 72.6115H299.862C300.376 72.6117 300.787 72.9969 300.787 73.4591V103.652C300.787 104.115 300.376 104.5 299.862 104.5H294.766C294.675 104.5 294.553 104.482 294.448 104.454C294.394 104.44 294.322 104.417 294.25 104.38C294.203 104.356 294.093 104.292 294.01 104.168L294.008 104.17L280.709 85.1252V97.0871H273.802V73.4591C273.802 73.1919 273.952 72.9817 274.081 72.8615C274.218 72.7337 274.431 72.6116 274.688 72.6115H279.823Z" fill="white" fill-opacity="0.7" stroke="#2F2D2D"/>
<path d="M277.037 70.4803C277.128 70.4803 277.249 70.4983 277.354 70.5262C277.409 70.5408 277.48 70.5641 277.551 70.6004C277.598 70.6241 277.707 70.6878 277.791 70.8114L277.794 70.8094L291.131 89.8582V71.328C291.131 71.0537 291.289 70.8372 291.444 70.7098C291.612 70.5714 291.839 70.4804 292.094 70.4803H297.076C297.589 70.4805 298.001 70.8657 298.001 71.328V101.521C298.001 101.984 297.589 102.369 297.076 102.369H291.979C291.888 102.369 291.767 102.351 291.662 102.323C291.607 102.309 291.535 102.285 291.464 102.249C291.417 102.225 291.307 102.161 291.223 102.037L291.221 102.039L277.922 82.994V94.9559H271.015V71.328C271.015 71.0608 271.166 70.8505 271.295 70.7303C271.431 70.6025 271.644 70.4804 271.901 70.4803H277.037Z" fill="white" stroke="#2F2D2D"/>
<path fill-rule="evenodd" clip-rule="evenodd" d="M307.829 88.8262C307.554 88.8173 307.277 88.8131 307 88.8131C307.277 88.8131 307.554 88.8086 307.829 88.8V88.8262ZM307.829 88.8V63.8278H332.8C332.371 77.4166 321.418 88.3701 307.829 88.8ZM332.8 63.8278C332.808 63.553 332.813 63.2769 332.813 63C332.813 63.2769 332.817 63.553 332.826 63.8278H332.8ZM332.826 63.8278H357.796V88.8C344.208 88.3701 333.255 77.4166 332.826 63.8278ZM357.796 88.8C358.071 88.8086 358.348 88.8131 358.626 88.8131C358.348 88.8131 358.071 88.8173 357.796 88.8262V88.8ZM357.796 88.8262V113.798H332.826C333.255 100.21 344.208 89.2558 357.796 88.8262ZM332.826 113.798C332.817 114.073 332.813 114.349 332.813 114.626C332.813 114.349 332.808 114.073 332.8 113.798H332.826ZM332.8 113.798H307.829V88.8262C321.418 89.2558 332.371 100.21 332.8 113.798Z" fill="#FDDC80"/>
</svg>
